<svg xmlns="http://www.w3.org/2000/svg" xmlns:xlink="http://www.w3.org/1999/xlink" viewBox="0 0 1140 360" fill="#fff">
	<defs>
		<!--rainbow-->
		<g id="rainbow" transform="scale(4)">
			<path style="fill:#E64C3C;"
						d="M4.645,45.577c-0.017-0.383-0.029-0.767-0.029-1.154c0-13.997,11.387-25.385,25.385-25.385
	s25.385,11.387,25.385,25.385c0,0.387-0.012,0.771-0.029,1.154h4.616C59.985,45.193,60,44.81,60,44.423c0-16.569-13.431-30-30-30
	s-30,13.431-30,30c0,0.387,0.015,0.77,0.029,1.154H4.645z"/>
			<path style="fill:#F0C419;"
						d="M9.289,45.577c-0.021-0.384-0.058-0.764-0.058-1.154c0-11.452,9.317-20.769,20.769-20.769
	s20.769,9.318,20.769,20.769c0,0.389-0.037,0.77-0.058,1.154h4.645c0.017-0.383,0.029-0.767,0.029-1.154
	c0-13.997-11.387-25.385-25.385-25.385S4.615,30.426,4.615,44.423c0,0.387,0.012,0.771,0.029,1.154H9.289z"/>
			<path style="fill:#71C285;"
						d="M13.905,45.577c-0.027-0.383-0.058-0.764-0.058-1.154c0-8.907,7.246-16.154,16.154-16.154
	s16.154,7.246,16.154,16.154c0,0.389-0.031,0.771-0.058,1.154h4.615c0.021-0.384,0.058-0.764,0.058-1.154
	c0-11.452-9.317-20.769-20.769-20.769S9.231,32.971,9.231,44.423c0,0.389,0.037,0.77,0.058,1.154H13.905z"/>
			<path style="fill:#0096E6;"
						d="M18.52,45.577c-0.038-0.38-0.058-0.764-0.058-1.154c0-6.362,5.176-11.538,11.538-11.538
	s11.538,5.177,11.538,11.538c0,0.389-0.021,0.774-0.058,1.154h4.615c0.027-0.383,0.058-0.764,0.058-1.154
	c0-8.907-7.246-16.154-16.154-16.154s-16.154,7.246-16.154,16.154c0,0.389,0.031,0.771,0.058,1.154H18.52z"/>
			<path style="fill:#546A79;"
						d="M23.181,45.577c-0.064-0.376-0.104-0.76-0.104-1.154c0-3.818,3.105-6.923,6.923-6.923
	s6.923,3.105,6.923,6.923c0,0.394-0.041,0.778-0.104,1.154h4.661c0.038-0.38,0.058-0.764,0.058-1.154
	c0-6.362-5.176-11.538-11.538-11.538s-11.538,5.177-11.538,11.538c0,0.389,0.021,0.774,0.058,1.154H23.181z"/>
		</g>
	</defs>

	<path fill="#68217A" d="M0 0h1140v360h-1140v-360z"/>

	<!--funnel-->
	<path
		transform="translate(700 190) rotate(-90) scale(8)"
		d="M1.5 1.5A.5.5 0 0 1 2 1h12a.5.5 0 0 1 .5.5v2a.5.5 0 0 1-.128.334L10 8.692V13.5a.5.5 0 0 1-.342.474l-3 1A.5.5 0 0 1 6 14.5V8.692L1.628 3.834A.5.5 0 0 1 1.5 3.5v-2zm1 .5v1.308l4.372 4.858A.5.5 0 0 1 7 8.5v5.306l2-.666V8.5a.5.5 0 0 1 .128-.334L13.5 3.308V2h-11z"
					/>

	<!--receipt input-->
	<path
		transform="translate(590 178) rotate(-90) scale(6.5)"
		d="M3 4.5a.5.5 0 0 1 .5-.5h6a.5.5 0 1 1 0 1h-6a.5.5 0 0 1-.5-.5zm0 2a.5.5 0 0 1 .5-.5h6a.5.5 0 1 1 0 1h-6a.5.5 0 0 1-.5-.5zm0 2a.5.5 0 0 1 .5-.5h6a.5.5 0 1 1 0 1h-6a.5.5 0 0 1-.5-.5zm0 2a.5.5 0 0 1 .5-.5h6a.5.5 0 0 1 0 1h-6a.5.5 0 0 1-.5-.5zm0 2a.5.5 0 0 1 .5-.5h6a.5.5 0 0 1 0 1h-6a.5.5 0 0 1-.5-.5zM11.5 4a.5.5 0 0 0 0 1h1a.5.5 0 0 0 0-1h-1zm0 2a.5.5 0 0 0 0 1h1a.5.5 0 0 0 0-1h-1zm0 2a.5.5 0 0 0 0 1h1a.5.5 0 0 0 0-1h-1zm0 2a.5.5 0 0 0 0 1h1a.5.5 0 0 0 0-1h-1zm0 2a.5.5 0 0 0 0 1h1a.5.5 0 0 0 0-1h-1z"/>
	<path
		transform="translate(590 178) rotate(-90) scale(6.5)"
		d="M2.354.646a.5.5 0 0 0-.801.13l-.5 1A.5.5 0 0 0 1 2v13H.5a.5.5 0 0 0 0 1h15a.5.5 0 0 0 0-1H15V2a.5.5 0 0 0-.053-.224l-.5-1a.5.5 0 0 0-.8-.13L13 1.293l-.646-.647a.5.5 0 0 0-.708 0L11 1.293l-.646-.647a.5.5 0 0 0-.708 0L9 1.293 8.354.646a.5.5 0 0 0-.708 0L7 1.293 6.354.646a.5.5 0 0 0-.708 0L5 1.293 4.354.646a.5.5 0 0 0-.708 0L3 1.293 2.354.646zm-.217 1.198l.51.51a.5.5 0 0 0 .707 0L4 1.707l.646.647a.5.5 0 0 0 .708 0L6 1.707l.646.647a.5.5 0 0 0 .708 0L8 1.707l.646.647a.5.5 0 0 0 .708 0L10 1.707l.646.647a.5.5 0 0 0 .708 0L12 1.707l.646.647a.5.5 0 0 0 .708 0l.509-.51.137.274V15H2V2.118l.137-.274z"/>

	<!--output-->
	<path
		transform="translate(830 86) scale(5)"
		d="M2 3.5a.5.5 0 0 1 .5-.5h11a.5.5 0 0 1 0 1h-11a.5.5 0 0 1-.5-.5zm.646 2.146a.5.5 0 0 1 .708 0l2 2a.5.5 0 0 1 0 .708l-2 2a.5.5 0 0 1-.708-.708L4.293 8 2.646 6.354a.5.5 0 0 1 0-.708zM7 6.5a.5.5 0 0 1 .5-.5h6a.5.5 0 0 1 0 1h-6a.5.5 0 0 1-.5-.5zm0 3a.5.5 0 0 1 .5-.5h6a.5.5 0 0 1 0 1h-6a.5.5 0 0 1-.5-.5zm-5 3a.5.5 0 0 1 .5-.5h11a.5.5 0 0 1 0 1h-11a.5.5 0 0 1-.5-.5z"/>

	<use xlink:href="#rainbow" x="300" y="0"/>

</svg>