<svg xmlns="http://www.w3.org/2000/svg" id="svg2" viewBox="0 0 744.09 1052.4"><style>@media (prefers-color-scheme:light){g,path{stroke:#000}}@media (prefers-color-scheme:dark){g,path{stroke:#fff}}</style><g id="layer1"><g id="g3130" transform="translate(22.047 176.18)"><g id="g4190" transform="translate(22.047 176.18)"><g id="g4580" style="stroke-width:4" transform="translate(-24.44 -327.39)"><g id="g4582" style="stroke-width:4"><path id="XDiv1" d="M630 0s-9.549 12.174-4.452 22.793 4.223 1.565 15.027 2.581 9.889 19.224 1.043 20.247c-8.846 1.024-11.443-4.908-15.516 3.507-4.072 8.414 13.188 34.277 8.468 45.27-4.719 10.995-3.28.429-14.507.589s-12.238 22.39-3.58 23.193 10.086-7.114 15.362 2.279c5.277 9.393 7.446 35.198 2.987 46.33s-3.648.38-14.854.664c-11.207.284-11.828 23.34-2.168 24.745s9.237-10.573 13.278-2.162 4.332 36.033.213 47.256-1.843 2.052-12.868 2.794c-11.025.743-7.784 23.094.65 23.372 8.435.279 9.65-12.354 14.737-3.345 5.086 9.01-10.927 36.632-6.323 47.696s5.088 2.182 14.962 3.595 9.582 22.122.278 23.438c-9.304 1.317-13.176-10.24-17.564-1.756s13.896 36.139 8.59 46.285c-5.304 10.146-5.018-.317-16.23-.059-11.212.259-8.385 22.748.237 23.497 8.621.75 10.452-8.543 14.907-.034 4.455 8.51 5.035 37.848-.285 47.921s-1.71 1.758-12.544 2.745-10.534 19.623-1.576 20.744 10.533-8.467 14.915.015c4.383 8.482 6.124 41.233.802 51.299-5.322 10.065-3.88-1.067-14.674-.04s-11.405 20.795-2.869 21.385 14.3-7.709 18.385.707 2.907 34.846-1.65 45.934-3.783-1.108-14.01.247-11.74 25.363-1.988 26.775c9.753 1.413 8.864-10.045 13.962-1.017 5.1 9.028-6.464 37.119-2.533 48.354 3.931 11.236 2.382-3.685 13.4-2.932s6.652 25.735-1.889 26.335c-8.54.6-9.442-9.055-14.644.149-5.2 9.203 11.108 37.397 6.015 48.02-5.093 10.625-1.803-3.885-11.912-2.5s-9.166 22.713-.704 23.103 11.225-7.281 15.905 1.343 1.391 38.44-3.33 49.433-1.155-.914-11.89.164c-10.738 1.079-9.507 20.027-1.052 20.392s8.845-5.226 13.821 3.646c4.976 8.87-11.858 37.352-6.546 47.47 5.31 10.12 6.663-1.887 17.872-1.611 11.209.275 5.633 21.709-2.853 22.175s-7.594-7.15-11.892 1.306c-4.299 8.456 10.165 35.96 5.517 47s-5.676-2.035-15.616-.626-7.374 25.358 1.178 25.981 6.444-8.963 11.084-.364c4.64 8.59-1.08 23.66-1.08 23.66" style="stroke-width:4;fill:none"/><path id="XDiv2" d="M560 0s6.18 14.404 2.144 25.635-3.279-4.678-14.006-3.59c-10.726 1.086-10.208 25.628-1.8 25.64s13.036-6.887 17.313 1.563-12.443 35.321-8.43 46.554 6.796.16 17.721 1.044 7.275 19.58-1.275 20.2-7.748-6.52-12.822 2.472 11.283 37.131 5.987 47.313-5.51.725-16.247 1.803-10.656 21.535-2.249 21.552c8.408.018 9.815-8.323 15.151 1.365s-7.885 36.738-2.548 46.679c5.338 9.94 3.767-.838 14.732-.006 10.965.831 4.698 23.013-3.71 23.088-8.41.074-8.253-6.13-12.489 2.311s10.74 33.44 5.708 44.147-6.208-1.014-16.138.396-9.342 24.88-.515 25.887c8.827 1.005 10.299-8.24 14.994.394 4.696 8.633 4.51 34.835-.265 45.789s-2.425 2.04-13.518 2.658-9.663 22.322-1.241 22.525 9.244-10.244 14.569-.651c5.324 9.592 5.997 38.397 1.86 49.617-4.138 11.22-3.484-4.687-13.44-3.28-9.957 1.408-12.711 23.834-3.138 25.226 9.573 1.393 13.595-9.058 18.485-.273s-11.38 38.757-6.038 48.594 2.59.098 13.39 1.118 8.68 18.8-.198 19.853-9.275-5.31-13.531 3.137-6.033 34.802-.708 44.842 4.48.55 15.686.837 5.158 23.853-3.523 24.69-7.83-7.039-12.63 1.669-6.235 34.774-2.113 45.997 5.652.844 16.45 1.867c10.799 1.022 10.188 20.025 1.675 20.56s-10.81-5.984-14.87 2.43c-4.059 8.412-4.474 33.643-.516 44.878s4.45 1.955 15.26 2.964c10.813 1.01 8.676 22.775.083 23.477s-10.8-8.17-15.711.634 7.765 34.978 3.527 46.18-1.503 1.278-12.664 1.732-8.364 21.627 1.163 23.01 10.144-10.931 15.108-2.072-13.683 36.702-8.388 46.892c5.294 10.19 5.17-1.536 15.145-.13 9.973 1.406 9.083 26.646.515 27.302-8.569.656-9.137-9.224-13.354-.787s9.219 33.796 4.734 44.918-3.81-.715-14.863-.022c-11.054.694-11.21 25.392-1.56 26.796s10.214-12.243 15.374-3.117c5.17 9.11-2.27 25.68-2.27 25.68" style="stroke-width:4;fill:none"/><path id="XDiv3" d="M490 0s-6.295 13.891-1.112 24.365.55.754 11.751 1.06c11.202.308 11.467 21.867 3.03 22.153-8.436.287-10.38-10.666-15.503-1.601-5.124 9.065 10.09 37.449 4.766 47.494-5.325 10.046-5.602-.19-16.325.9s-5.897 25.927 2.536 26.198 9.72-8.167 13.758.244c4.038 8.412-8.716 34.378-4.05 45.405s1.02.817 11.668 1.964 10.25 19.127 1.236 20.29c-9.014 1.16-10.699-8.715-15.844.384s-2.107 39.152 2.978 49.787 3.781-2.84 14.345-1.636 7.964 25.738-.66 26.49c-8.623.752-9.687-10.472-13.669-2.063-3.981 8.408-4.933 35.518-.695 46.719s4.668-.724 15.185.507 8.403 22.003-.47 23.051c-8.872 1.05-12.682-8.173-17.5.549s-1.703 37.657 3.422 48.232 1.548 1.248 12.267 2.34 9.298 18.817.314 19.957-8.277-5.486-13.176 3.307-4.934 35.051.339 45.312 1.05 1.333 11.82 2.382 9.24 19.652.413 20.657c-8.826 1.006-6.994-6.555-12.077 2.449s9.695 34.371 5.361 45.548c-4.333 11.177-3.532-.54-14.259.548s-11.659 24.935-2.53 26.168c9.128 1.233 9.381-10.944 13.896-2.41 4.514 8.533 5.178 38.696-.153 48.7s-2.172 1.254-13.325 1.731-8.37 18.633.803 19.89 8.001-6.527 12.526 2.012c4.524 8.538 7.997 36.588 3.763 47.79s-4.21-1.793-14.803-.609c-10.594 1.185-9.2 22.017-.15 23.204 9.052 1.187 9.9-6.852 14.693 1.85 4.791 8.7 4.754 36.69.077 47.712-4.677 11.021-4.804-3.407-15.775-2.583-10.971.825-11.173 24.661-2.542 25.424 8.631.764 10.94-7.491 16.155 1.743s4.267 36.675-.356 47.728-3.324-.807-14.168.17c-10.844.976-9.688 18.708-.5 19.973 9.19 1.265 10.205-8.777 14.98-.088s7.34 38.324 2.094 48.66-6.472 1.875-17.609 2.393-5.99 22.492 2.741 23.394 11.003-10.16 15.084-1.744c4.082 8.416-12.983 35.69-8.103 46.558 4.879 10.87 3.699 3.154 14.824 3.702s10.426 19.422 1.646 20.379c-8.78.956-12.578-8.726-17.391-.008-4.8 8.73 4.28 25.28 4.28 25.28" style="stroke-width:4;fill:none"/><path id="XDiv4" d="M420 0s-7.585 14.441-3.654 25.676c3.93 11.236 6.276-3.612 17.11-2.624s5.018 23.628-3.548 24.28c-8.567.654-6.875-9.921-11.618-1.256s7.589 39.252 3.126 50.382-2.264-.437-12.85.752-11.695 19.437-2.022 20.844c9.674 1.406 9.191-8.692 14.517.912s5.321 37.147.047 47.402-4.08.052-14.557 1.305-8.796 20.34.204 21.49 11.335-9.258 15.945-.676-9.313 36.655-5.247 47.884 2.265-.563 12.961.549 11.484 23.644 3.036 23.979c-8.447.335-10.48-6.35-15.458 2.522s11 36.197 6.494 47.31-4.44-3.17-15.642-2.865-9.457 23.204-1.018 23.503 8.925-5.714 13.536 2.87c4.612 8.582-7.552 35.316-2.576 46.088s.464 1.73 11.659 2.07 12.117 19.765 2.821 21.078c-9.295 1.313-12.449-5.379-16.49 3.033s13.031 34.93 8.028 45.669c-5.004 10.74-4.766-1.719-15.977-1.461-11.212.257-8.74 22.853-.163 23.524s7.978-5.939 12.578 2.637 8.877 37.4 3.55 47.436c-5.326 10.038-3.54-.496-14.716-.088s-11.09 20.044-1.682 21.397 9.867-4.875 14.57 3.763-12.024 35.461-7.676 46.633 7.332-2.153 18.275-1.292c10.943.862 8.268 22.78-.196 23.175-8.463.397-12.197-9.347-16.693-.82-4.496 8.525 11.8 37.432 6.587 47.844-5.213 10.413-3.08 3.328-14.291 3.587s-10.446 22.95-2.005 23.257 9.684-8.99 14.455-.304 7.972 36.817 3.138 47.725-7.01-1.089-18.227-.865-4.863 24.026 3.57 24.3c8.434.273 7.579-8.48 12.889 1.038s6.95 35.252 2.038 46.09-6.895-1.651-18.084-1.293c-11.19.36-8.19 26.104.219 26.164s9.697-12.362 14.964-2.998-11.257 37.446-6.395 48.33c4.862 10.883 4.028 2.072 15.145 2.64 11.117.567 10.827 22.762 2.113 23.641-8.713.88-10.985-8.267-15.006.143s8.537 34.009 3.706 44.92c-4.83 10.91-1.562 1.206-11.924 2.513s-10.968 19.718-2.252 20.6c8.715.882 10.806-9.344 15.977-.197 5.17 9.17-3.29 25.81-3.29 25.81" style="stroke-width:4;fill:none"/><path id="XDiv5" d="M350 0s6.663 12.432 1.432 22.805-3.419-.507-14.609-.15-7.201 26.3 1.272 26.728c8.472.426 7.786-10.83 13.125-1.125 5.337 9.703-8.959 34.83-3.753 45.26s4.469-.197 15.562.422 7.39 25.125-2.323 26.535-11.36-9.895-15.536-1.466 13.608 36.034 8.269 45.957c-5.34 9.922-2.125 1.78-13.346 1.985s-8.826 22.267.003 23.274c8.828 1.008 8.667-6.404 12.79 2.017 4.124 8.42 3.848 34.65-1.447 44.84s-.935.137-11.36 1.416-12.238 20.982-3.31 22.078 11.858-9.221 16.431-.658c4.574 8.562 3.449 38.347-1.807 48.657s-.36-.228-11.555.11c-11.195.337-9.971 21.761-1.219 22.688s10.226-9.12 15.535.394c5.31 9.513 2.291 39.689-2.794 50.325s-.7-2.664-11.92-2.453c-11.22.21-9.06 22.377-.017 23.558 9.043 1.18 6.96-8.248 11.865.55s-10.328 38.066-6.051 49.258 4.575-2.426 15.797-2.234 7.941 23.438-.56 23.947c-8.502.509-6.76-6.794-12.051 2.652-5.293 9.446 11.17 35.081 5.868 45.237s-6.564 1.715-16.765 3.078c-10.2 1.362-9.478 22.279-1.042 22.564s13.526-9.639 18.341-.92c4.815 8.72-14.592 37.184-9.656 47.998s7.505-1.393 18.426-.504 5.82 24.259-3.174 25.406-6.422-9.782-11.644-.53c-5.223 9.251 8.625 34.44 3.696 45.263-4.928 10.82-2.64-.543-13.767.004-11.126.546-8.37 25.419.864 26.705s10.385-10.128 15.264-1.355-13.476 36.132-8.137 46.047 2.02 1.992 13.24 2.21c11.218.218 9.178 21.318.095 22.524s-9.864-6.354-14.209 2.116-2.206 36.614 3.062 46.888 1.864.13 12.39 1.357 7.097 21.183-1.314 21.29-9.226-10.026-14.545-.465c-5.32 9.56-1.962 35.9 2.406 47.065s3.472 2.906 14.573 3.507c11.101.602 10.297 19.904 1.164 21.14s-12.283-9.744-16.778-1.219-3.268 40.287 2.056 50.338 2.634-3.875 12.602-2.469 8.404 26.162-.408 27.152-10.46-11.826-15.192-3.169c-4.73 8.63 4.16 25.34 4.16 25.34" style="stroke-width:4;fill:none"/><path id="XDiv6" d="M280 0s-8.825 13.37-4.711 24.593 5.226-3.024 16.379-2.547 10.815 22.684 1.373 24.046c-9.443 1.363-9.905-6.56-15.242 3.14s-6.595 33.635-1.957 44.68 4.167-1.21 14.77-.03c10.6 1.18 12.046 23.758 3.054 24.903s-13.081-6.792-17.605 1.746-3.093 37.428 2.165 47.731.445-1.678 11.677-1.592 12.343 23.511 3.634 24.385-11.08-11.129-15.823-2.464-5.025 36.54-1.028 47.774 4.194-.13 15.424-.008 10.34 22.935 1.12 24.216c-9.221 1.28-10.057-9.438-15.174-.384s-4.437 39.775.52 50.566c4.959 10.791 3.907-.863 14.289.435s9.04 22.73.629 22.824-13.05-10.703-18.002-1.855c-4.954 8.847 10.312 36.344 6.143 47.559s-3.968 1.734-15.16 2.08-7.647 23.333 1.918 24.723 7.494-10.7 12.808-1.165 5.066 36.983-.112 47.467-1.754.972-12.861 1.563c-11.106.59-7.103 22.89 1.311 23.028s9.564-12.272 14.906-2.487 5.691 39.198.369 49.261-7 .376-18.181.768-7.782 23.156 1.409 24.422c9.19 1.266 10.208-12.565 15.13-3.75 4.923 8.816 6.662 39.54 1.599 50.205-5.063 10.666-7.982-.56-17.897.85-9.916 1.412-6.382 22.594 2.55 23.694s8.02-11.214 12.193-2.786c4.175 8.429-10.606 40.672-5.328 50.92 5.277 10.246 6.17-2.177 17.375-1.886s6.539 20.836-3.01 22.224-8.074-8.05-12.105.36c-4.03 8.412-4.316 39.244-.317 50.478 4 11.234 2.43-3.58 13.647-3.356s9.581 23.51 1.091 23.988-9.946-9.314-15.085-.225c-5.138 9.09 7.978 37.13 3.644 48.305s-4.523-1.032-14.923.259-8.43 25.002.367 25.977c8.796.975 10.287-11.067 14.524-2.626 4.236 8.44-10.266 36.949-5.013 47.266s7.069 1.02 17.08 2.422 4.866 23.443-3.55 23.596c-8.415.152-6.956-7.917-11.683.737s-5.31 37.745.004 47.853 2.271-3.733 13.428-3.268 9.448 22.185-.283 23.596-11.22-4.833-15.213 3.575c-3.99 8.41 3.73 22.22 3.73 22.22" style="stroke-width:4;fill:none"/><path id="XDiv7" d="M210 0s-9.06 14.257-4.31 25.23 3.553-.19 14.77.04 8.392 20.601-.463 21.634c-8.856 1.034-8.96-9.854-13.88-1.04-4.921 8.813 9.865 39.38 5.171 50.39-4.693 11.012-1.011-3.3-11.68-2.166-10.668 1.133-12.146 22.177-2.746 23.527 9.399 1.35 12.816-7.553 17.957 1.54 5.14 9.093 2.396 38.262-1.6 49.496s-4.528-5.074-14.83-3.743c-10.3 1.33-11.15 23.693-1.991 24.942 9.158 1.249 10.17-9.997 15.306-.912s8.065 38.051 2.747 48.14-6.76-1.706-17.246-.457-6.164 25.925 2.358 26.482 7.885-12.622 13.173-3.192c5.287 9.43-9.74 38.264-4.418 48.332s4.03 1.738 15.219 2.1 5.934 22.17-3.516 23.535-9.884-7.757-14.25.72c-4.364 8.475 13.71 37.788 8.4 47.908s-5.91-.885-16.26.427-9.507 18.848-.5 20.005c9.008 1.156 8.74-7.904 13.774 1.034s5.461 39.155.431 49.864c-5.03 10.71-3.796-.865-14.749-.017-10.953.849-7.002 23.391 1.608 24.12s11.479-11.333 16.16-2.71c4.68 8.625 3.171 35.773-1.446 46.83s-2.97-.517-13.96.28-10.192 26.643-1.763 26.893 12.075-11.542 17.244-2.4-13.749 38.51-9.202 49.605c4.546 11.094 6.983-2.526 18.02-1.803 11.036.724 7.75 25.116-.986 26.023s-12.769-10.645-17.339-2.084-4.14 36.51.03 47.725 4.974.72 15.414 1.991 10.457 18.976 1.351 20.196c-9.105 1.22-10.962-8.477-15.526.08s-2.54 39.719 2.11 50.757 3.839-.983 15.008-.552 9.128 22.09.064 23.283c-9.064 1.195-10.439-7.739-15.544 1.298s-7.034 37.857-1.74 48.05c5.292 10.194 5.74-3.24 16.93-2.884s7.695 25.15-1.895 26.545-8.758-8.817-13.41-.211-3.076 35.47.883 46.706 3.05-1.953 14.277-1.783c11.225.17 8.671 25.452.167 25.967s-10.697-10.503-14.667-2.095-4.135 38.156.227 49.324 3.564-1.075 14.767-.77 6.194 21.198-2.554 22.12c-8.748.92-11.475-7.781-15.557.634-4.09 8.41 4.46 25.04 4.46 25.04" style="stroke-width:4;fill:none"/><path id="XDiv8" d="M140 0s9.634 13.708 4.727 24.55-4.824-2.865-14.825-1.462-10.988 25.204-2.121 26.248c8.866 1.043 9.405-11.708 13.862-3.199s-7.151 38.277-2.714 49.418 3.792-1.86 14.62-.866 8.554 23.83.118 24.112c-8.435.28-14.192-8.902-18.403-.466s14.48 37.049 9.422 47.722-6.47-2.519-16.643-1.149-9.33 26.081-.247 27.288 12.055-11.104 16.983-2.284-11.647 39.182-6.517 49.75 1.64-.086 12.82.303c11.182.388 9.911 19.906 1.49 20.107-8.422.201-11.339-8.67-15.829-.146s9.572 39.743 4.38 50.2-3.257-3.425-13.74-2.176-9.446 22.794-.486 23.915 10.986-5.392 15.246 3.055c4.26 8.446-8.44 36.444-3.693 47.419s4.023-1.38 15.197-.967 6.921 21.314-1.49 21.423-10.913-8.598-15.599.029-4.937 39.954-.68 51.15c4.258 11.198 7.479-2.344 17.733-.997 10.253 1.347 4.974 21.78-3.583 22.412-8.556.633-6.606-9.811-11.735-.738s-4.584 39.567.157 50.546 4.194-1.78 15.205-1.015 6.405 23.63-2.854 24.926c-9.258 1.297-8.03-10.836-12.047-2.426-4.016 8.41 10.562 37.097 6.016 48.19-4.546 11.094-3.623-.394-14.858-.337s-8.359 23.84.188 24.454c8.547.613 6.989-8.477 10.962-.069 3.974 8.408-8.672 39.535-3.357 49.636s2.895-4.209 14.017-3.655 8.55 22.467-.885 23.827-10.533-8.197-15.259.457-2.627 37.746 2.715 47.608c5.343 9.862 4.951.62 15.31 1.928s5.24 23.548-3.324 24.196-9.08-11.854-14.245-2.716c-5.167 9.137 10.562 40.056 5.39 50.554-5.17 10.497-2.714-4.043-13.467-2.98s-9.313 26.61-.863 26.956c8.45.344 9.002-10.101 13.993-1.213s8.54 38.235 3.355 48.705-3.415-2.435-14.404-1.637c-10.989.797-9.604 25.283-1.099 25.799s7.496-11.588 12.426-2.766c4.93 8.823-8.192 39.592-3.398 50.532s5.546-4.139 15.371-2.725 5.171 24.4-3.392 25.046-5.843-10.742-11.164-1.162 1.22 24.69 1.22 24.69" style="stroke-width:4;fill:none"/><path id="XDiv9" d="M70 0s5.413 12.533 1.074 23.708-2.344 1.067-13.148 2.084-8.502 19.525-.056 19.854 11.963-8.197 16.007.215 4.879 37.439-.398 47.688-4.15-.762-15.21-.076c-11.059.685-11.159 24.34-1.933 25.623 9.225 1.282 11.301-7.372 16.435 1.71s4.298 36.9-.695 47.653-3.65-.91-14.439.122-7.443 19.082 1.356 20.06c8.798.976 9.11-9.648 14.425-.109 5.314 9.54-12.441 41.281-7.131 51.406s6.133-2.955 17.257-2.405 8.906 23.253.127 24.208-10.886-7.387-16.107 1.861 9.934 37.053 5.024 47.893-4.917-1.311-16.149-1.217-6.28 23.036 3.023 24.352 10.02-11.523 14.495-3.007-13.117 38.131-8.783 49.307 4.631-2.236 15.646-1.476c11.014.76 8.247 23.247-.74 24.389s-9.211-6.163-13.905 2.469-5.973 36.894-.714 47.197c5.258 10.302 7.308-1.712 18.199-.786 10.89.926 7.126 24.599-1.405 25.177-8.53.578-9.774-11.815-14.093-3.353-4.318 8.462-7.907 38.196-2.951 48.99s5.547 1.992 16.755 2.27 8.482 21.963-1.078 23.352c-9.56 1.39-9.263-8.67-14.226.187s-6.1 34.366-.807 44.559 5.897-1.763 16.158-.419c10.26 1.344 6.664 24.94-2.068 25.841-8.732.902-7.194-7.98-12.48 1.444-5.285 9.424-2.742 34.024 1.316 45.254 4.059 11.23.627-1.313 11.486-.353s12.371 23.374 3.398 24.505-14.379-8.788-18.41-.378-4.993 38.265.01 49.006 7.317-.445 17.784.813 8.244 23.684-.163 23.702-10.565-8.805-15.741.35c-5.176 9.156 11.839 35.236 7.63 46.443s-6.96.157-18.135.565-7.709 19.294 1.745 20.659c9.453 1.365 8.889-9.162 14.095.052 5.205 9.213 5.888 36.942 1.49 48.098s-4.374-.556-15.585-.293-10.25 26.255-1.841 26.32c8.408.064 10.69-8.207 14.868.222s7.916 37.532 2.819 48.149-3.74-1.243-14.533-.216c-10.794 1.028-9.908 22.758-.606 24.074s10.85-8.604 15.01-.177c4.157 8.44-4.101 22.45-4.101 22.45" style="stroke-width:4;fill:none"/></g><g id="g4593" style="stroke-width:4"><path id="YDiv1" d="M0 71.429s13.622-6.445 23.715-1.128c10.093 5.316-.153 2.06 1.232 12.169s19.93 8.249 21.243-1.045c1.312-9.293-10.093-7.887-1.285-12.803 8.808-4.915 39.593 11.133 50.177 6.013s-3.775-3.287-2.362-13.172 24.196-12.669 25.61-2.903c1.412 9.765-10.17 9.615-1.708 13.937s33.947 6.478 44.74 1.522c10.795-4.956 2.855-3.265 3.73-14.198.874-10.933 20.54-11.74 21.949-2.046 1.408 9.693-7.41 11.427 1.63 16.534s33.846 3.709 43.726-1.633-2.159-3.82-.794-14.013 24.261-10.207 25.593-.86c1.332 9.346-9.02 13.943-.485 18.457s37.122-11.534 48.212-6.98-.587 1.334-.419 12.56c.17 11.226 21.343 8.065 21.958-.483.616-8.548-6.279-8.602 2.206-12.992s31.704-3.012 42.93 1.088-.827 3.524-.094 14.554c.732 11.031 25.634 6.514 26.526-2.21s-8.782-9.807.02-14.715c8.8-4.908 35.855-2.506 46.908 2.118 11.053 4.625-.366 3.607-.03 14.802s22.236 9.358 22.895.787c.66-8.57-11.473-11.725-2.923-16.274s38.388 8.74 49.58 4.461c11.191-4.278-1.112-.86-.21-11.77s19.848-9.551 21.164-.248-6.034 8.06 3.233 13.29 34.954 3.204 46.188-.802-3.244-5.15-2.005-15.653 24.289-8.622 25.703 1.192-8.916 12.58-.485 16.772 35.855 2.633 46.965-1.877-4.79-3.084-3.414-13.23 25.077-8.221 26.105.629-12.485 8.304-2.742 13.645c9.7 5.34 24.98-3.495 24.98-3.495" style="stroke-width:4;fill:none"/><path id="YDiv2" d="M0 142.86s11.142-6.157 22.118-1.412-1.795 3.588-.56 14.099 22.546 8.061 23.365-.607-5.303-9.907 3.748-15.022 35.75 9.83 45.831 4.512-1.054-4.04.203-14.51 22.908-5.91 23.334 2.563-8.772 7.821.619 13.097 32.825 6.17 42.77.832c9.945-5.337-1.413-4.996-.1-15.344s22.472-8.416 23.783.874-5.562 8.916 3.55 14.067 31.813-11.544 42.826-6.853c11.013 4.69-.622 4.54-.148 15.693.474 11.154 25.768 8.396 27.131-1.05 1.363-9.444-8.286-10.433.123-14.422s31.765 9.775 42.965 5.53.93-5.72 2.343-15.588 23.547-7.515 24.762 1.584-12.284 7.845-2.635 13.178c9.65 5.332 37.702 5.32 48.365.255s-2.013-5.105-.605-15.057c1.409-9.952 19.802-7.201 21.16 2.224s-7.553 11.943.855 15.914 38.556 4.194 49.162-.911-1.056-5.808-.705-17c.351-11.19 19.948-6.736 20.662 1.865s-8.788 9.913.017 14.825 37.633-8.574 48.86-4.49-2.751 1.15-1.359 11.22 22.942 8.766 24.018-.137-7.752-9.851.956-14.653 33.147 10.642 44.36 6.453c11.211-4.188 1.09-4.68 2.333-15.175s22.786-9.162 24.196.542c1.41 9.703-11.667 10.218-3.092 14.814s38.047-7.706 49.24-3.432-3.658 1.418-2.911 12.44 23.38 11.696 24.575 2.63c1.195-9.064-9.42-9.32.256-14.654 9.675-5.336 23.629 1.107 23.629 1.107" style="stroke-width:4;fill:none"/><path id="YDiv3" d="M0 214.29s13.688-9.463 24.386-4.424-2.79 3.933-2.743 15.168c.046 11.235 25.577 10.411 26.989.658s-9.851-7.666-.768-12.801 32.233-5.544 43.465-1.52c11.233 4.022 3.3 3.789 3.755 14.95.454 11.16 18.446 9.148 19.818-.33s-5.994-8.771 2.42-12.84 33.572-7.654 44.743-3.302.583 7.818 1.968 17.926 21.083 5.43 22.177-3.494c1.093-8.925-6.91-9.866 1.67-14.472s32.464-3.43 43.696.602.02 6.996 1.252 17.51c1.233 10.516 21.297 7.806 22.275-.993.978-8.8-8.608-12.036 1.085-17.373s37.297-1.303 48.487 2.98-.438.755-.388 11.99 22.021 12.085 22.862 3.4c.842-8.684-11.202-10.048-1.778-15.334s35.472 10.662 46.44 5.905c10.968-4.756-.103-3.286.781-14.212s24.79-9.408 25.71-.66-11.539 10.63-3.131 14.587 38.764-13.702 49.074-8.446.06 3.686.233 14.912 19.337 11.352 20.592 2.182-8.465-11.937.81-17.17 34.873 12.196 45.5 7.106.37-1.944 1.626-12.417 23.079-9.543 24.44-.108c1.36 9.434-7.347 8.085 1.078 12.237 8.424 4.151 33.694-8.126 44.593-3.28 10.898 4.845-.24.482.9 11.143 1.138 10.66 20.934 11.493 21.402 3.006s-6.248-12.136 2.804-17.252c9.053-5.116 35.57 12.462 46.68 7.95s-3.559-3.59-3.419-14.82c.14-11.229 22.252-11.282 23.652-1.664s-9.077 9.844-.089 14.915c8.989 5.072 24.953-2.215 24.953-2.215" style="stroke-width:4;fill:none"/><path id="YDiv4" d="M0 285.71s10.224-6.398 21.448-2.286 2.65 3.383 3.647 14.208 22.193 9.141 23.565-.338-10.838-7.878-2.141-12.663 34.83-6.572 44.912-1.254-.688 2.228.138 13.198c.825 10.97 23.276 8.67 23.454.251.178-8.418-6.014-7.552 3.014-12.65 9.027-5.1 35.176-4.702 45.864.345s-3.012 4.196-1.707 14.562 21.573 7.123 22.981-2.569-8.71-9.979.156-14.95c8.867-4.973 38.63-5.186 49.254-.093s-.852 5.49.493 15.746 20.147 7.213 20.962-1.453c.815-8.665-6.518-7.348 2.557-12.478s34.608 12.035 45.406 7.084-3.952-6.402-2.647-16.77 24.83-6.292 24.835 2.115-7.1 6.715 2.202 11.96 33.473-7.711 44.505-3.05 1.527 2.336 2.11 13.445c.585 11.11 19.247 7.422 20.62-2.064s-9.057-9.664-.624-13.864c8.433-4.199 35.717-4.827 46.947-.78 11.231 4.048.202 3.257.959 14.273s25.091 9.462 25.542.98c.45-8.48-12.923-7.935-3.45-13.235 9.474-5.3 38.837 8.934 50.072 4.973s-3.974-5.704-2.692-16.122 21.765-8.98 23.088.34-7.799 9.027 1.35 14.2 36.943-10.753 47.435-5.58c10.491 5.175-.736 6.846.313 17.617 1.049 10.77 21.016 5.895 22.228-3.198s-8.256-6.935.155-10.968c8.411-4.032 34.236 7.205 45.206 2.452 10.971-4.752 1.127-3.826 1.688-14.946s21.502-9.792 22.91-.109c1.407 9.684-10.708 11.235-1.816 16.23 8.9 5 25.07-2.56 25.07-2.56" style="stroke-width:4;fill:none"/><path id="YDiv5" d="M0 357.14s13.819 7.323 25.055 3.358-1.251-5.084-.004-15.571 21.03-6.176 21.24 2.247c.208 8.423-6.977 9.035 1.976 14.08s34.554-10.13 45.404-5.23.112 3.027 1.27 13.66c1.158 10.634 20.077 9.614 20.952.904s-7.378-9.964 2.433-15.307 32.177-5.41 43.075-.564-.462 5.015.657 15.7c1.12 10.686 24.676 5.398 25.442-3.235s-10.546-6.683-1.843-11.477c8.702-4.793 36.019-7.896 45.99-2.561s-.318 6.992.893 17.544 25.042 7.81 25.925-.906-9.322-9.31-.14-14.5c9.183-5.19 32.477-5.013 43.294-.08s-1.213 2.674-.284 13.562c.928 10.888 26.584 8.218 27.26-.362.678-8.58-11.378-8.668-2.966-12.717s36.234-8.088 46.181-2.75 2.863 4.74 3.287 15.912c.424 11.17 20.415 7.044 21.425-1.787s-6.988-7.418 2.126-12.571c9.113-5.153 34.82 8.964 45.686 4.082s-.692-3.598.49-14.196 22.743-6.294 23.353 2.252-11.83 9.67-2.667 14.85 34.939 1.862 46.128-2.426c11.189-4.29 1.208-4.402 1.605-15.58.397-11.18 22.793-8.775 23.757.012.964 8.786-7.312 13.95 1.097 17.959s35.192-13.5 46.194-8.794-.544 6.762-.228 17.962 22.093 4.904 22.28-3.516-6.45-7.945 2.326-12.827 32.185 11.717 43.315 7.25c11.129-4.466-1.732-5.015-.348-15.128 1.384-10.114 24.294-7.676 24.77.814.477 8.49-9.476 9.572-.752 14.394s24.345-4.455 24.345-4.455" style="stroke-width:4;fill:none"/><path id="YDiv6" d="M0 428.57s13.891-6.535 23.957-1.213-3.182 4.173-1.866 14.513 24.736 6.562 26.074-2.8-10.14-6.401-.67-11.7 33.057 8.04 44.035 3.298c10.979-4.741-1.422-4.887-.007-14.718 1.414-9.83 26.23-8.383 27.072.301.84 8.685-10.057 11.183-.399 16.516 9.659 5.334 34.085-14.179 44.41-8.929s-.997 7.4-.06 18.28 22.13 5.914 22.526-2.55c.398-8.464-5.497-10.567 3.107-15.216 8.605-4.65 32.27 11.192 43.275 6.489s.513-1.213 1.248-12.243 25.686-9.852 25.93-1.424-9.13 8.415-.594 12.93c8.534 4.515 36.248 7.42 46.839 2.304s-1.16-5.196.208-15.376 20.71-6.983 20.845 1.43-6.01 7.75 2.659 12.497c8.668 4.747 34.992-8.335 46.226-4.336s-2.316 1.078-1.29 11.872 21.973 12.5 22.932 3.717c.96-8.782-6.323-11.735 2.134-16.037s35.22 8.875 45.178 3.539c9.96-5.336.428-.243.634-11.463.205-11.221 23.669-11.111 23.814-2.697s-9.07 13.156-.553 17.633c8.518 4.476 33.571 4.367 43.827-.907 10.256-5.275-1.17-4.142.16-14.442 1.332-10.3 25.914-11.041 26.212-2.603.297 8.44-11.871 9.341-2.076 14.684s38.615-10.928 48.768-5.624-.57 5.81.473 16.587c1.043 10.776 23.55 7.414 23.587-.993s-8.915-9.078.055-14.136 32.553-4.692 42.802.585 1.035 1.705 2.274 12.209 22.9 12.152 23.354 3.67c.456-8.483-7.72-10.55.825-15.087 8.56-4.54 22.09 1.44 22.09 1.44" style="stroke-width:4;fill:none"/><path id="YDiv7" d="M0 500s13.085 9.78 23.785 4.744-3.236-4.973-2.346-15.894 24.086-11.176 24.945-2.479c.858 8.698-7.413 10.044 1.667 15.177s35.322-10.477 46.407-5.912c11.085 4.564-.646 4.218.31 15.081s20.296 8.467 21.582-.766c1.285-9.232-8.703-6.296-.017-11.067 8.686-4.772 34.183 9.207 45.418 5.25s1.951-6.137 3.26-16.496 21.617-10.005 22.739-1.045-9.214 9.88.545 15.222 33.27-11.061 44.39-6.571 1.299 6.572 2.132 17.537c.832 10.965 22.064 9.575 23.39.244s-9.15-9.822.253-15.102c9.402-5.279 33.836-4.526 43.878.8s-1.59 3.571-.526 14.323 25.294 6.7 26.495-2.375-12.466-8.29-3.396-13.417c9.07-5.126 35.868-5.41 46.42-.27s3.286 3.08 3.69 14.258 21.682 7.343 22.37-1.243-8.62-6.268.323-11.305c8.943-5.036 34.618 10.113 45.851 6.105 11.233-4.01-3.486-7.235-2.094-17.304 1.393-10.07 24.401-9.83 25.216-1.164.815 8.665-10.988 10.442-1.565 15.728s36.771 4.46 47.171-.758c10.4-5.22.663-3.926 1.513-14.877s22.567-8.688 23.318-.065c.75 8.623-7.694 10.517.92 15.183s34.097 8.29 44.106 2.96-.736-5.783-.674-17.017c.06-11.234 25.226-5.794 25.293 2.615.066 8.409-9.207 5.692.531 11.032 9.74 5.34 33.953-8.762 44.131-3.465 10.18 5.297.086 1.942.15 13.176.065 11.234 25.627 11.04 27.023 1.445s-9.84-11.212-.417-16.497c9.44-5.28 21.83 4.21 21.83 4.21" style="stroke-width:4;fill:none"/><path id="YDiv8" d="M0 571.43s11.337-8.913 21.445-3.6.87 7.34 2.284 17.2 23.837 5.435 24.432-3.104-10.151-10.162-1.06-15.3c9.09-5.14 36.742-1.792 47.202 3.398s-1.184 4.04-.154 14.83 19.431 8.506 20.829-1.101-6.685-8.818 1.873-13.384 36.846-5.435 47.822-.69c10.975 4.747-2.372 1.382-1.047 11.698s24.426 10.56 25.037 2.014-9.126-9.244-.072-14.36 32.309 11.434 43.237 6.625c10.927-4.81-1.362-4.944-.495-15.882s25.715-7.845 26.853 1.136-9.309 6.852-.35 11.9c8.957 5.05 35.87 8.733 45.835 3.398s.55-6.26 1.284-17.29c.735-11.03 23.46-7.114 23.627 1.303s-8.667 10.273-.068 14.913 33.078-12.874 44.233-8.476.379 7.24.774 18.42c.396 11.179 21.301 5.475 21.772-3.013s-9.646-8.411-.392-13.636 38.906 9.514 50.137 5.467-3.239-5.485-2.081-16.119c1.158-10.633 24.315-5.45 25.141 3.223s-10.325 7.604-1.916 11.591 34.088 6.736 45.2 2.231.612-2.484.636-13.72 22.445-9.048 23.678.082-8.963 7.938-.515 12.204 36.669-11.551 47.593-6.737.864 6.317 2.279 16.144c1.414 9.828 23.279 8.09 23.463-.33s-12.282-9.104-3.612-13.854 38.596 9.216 49.158 4.082c10.561-5.134-4.031-3.833-2.617-13.698s25.759-6.844 26.718 1.938-12.136 8.368-3.26 13.348c8.88 4.98 25.1-2.85 25.1-2.85" style="stroke-width:4;fill:none"/><path id="YDiv9" d="M0 642.86s13.214 5.688 24.426 1.502c11.212-4.187.27-1.828.654-13.011s21.919-10.698 23.246-1.365-8.871 9.762-.24 14.454c8.63 4.691 34.059 7.971 45.05 3.25 10.993-4.722 1.147-3.833 1.155-15.068.007-11.236 20.882-11.012 20.932-2.605s-7.772 9.937.661 14.132 34.528-9.402 45.748-5.263.983 3.2 2.062 13.936 21.22 12.097 22.068 3.408-8.137-13.09.904-18.199c9.042-5.108 33.84-3.477 45.046.74s1.904 5.509 3.318 15.369 20.83 7.39 21.775-1.38-9.425-5.676-.003-10.961 35.93 10.945 46.598 5.883c10.668-5.061-1.727-4.437-.395-14.735s22.531-12.29 23.253-3.684-9.685 12.929-.525 18.108c9.16 5.178 38.794 3.046 49.28-2.131 10.484-5.178-3.04-4.599-2.738-15.802s24.025-5.749 25.252 3.369-8.093 9.967.437 14.47 33.632-13.408 43.499-8.066c9.866 5.342.248 5.588.46 16.808s24.736 5.635 25.635-3.094c.9-8.73-8.474-8.198 1.047-13.508 9.52-5.31 33.984 8.869 45.176 4.59s-3.098-1.566-1.684-11.414c1.414-9.849 25.1-11.578 26.42-2.266s-9.587 9.359-.024 14.678 35.149-10.947 46.181-6.287-1.935 7.49-.546 17.576 21.864 6.283 23.274-3.432-7.79-8.153 1.244-13.257 35.487 10.34 46.257 5.363c10.771-4.977-1.17-4.093.042-14.642s21.29-9.846 22.207-1.102c.916 8.744-10.102 13.479-1.534 18.062 8.55 4.58 24.37-4.43 24.37-4.43" style="stroke-width:4;fill:none"/><path id="YDiv10" d="M0 714.29s12.571-8.913 23.786-4.743-.758 7.21-.436 18.41 23.289 4.645 23.4-3.767-9.558-9.67-.791-14.542c8.767-4.87 34.159-2.02 45.392 1.986s2.345 4.776 3.384 15.557 20.255 8.795 20.787.284c.53-8.51-5.48-12.033 3.087-16.614 8.566-4.58 33.148-2.078 44.295 2.342 11.148 4.42-2.46 2.097-1.57 13.018s26.48 8.187 27.306-.487-11.992-8.68-3.399-13.309 35.123-4.609 46.288-.236c11.164 4.372 3.165 3.798 3.182 15.034s22.214 9.396 23.556.02-12.072-11.655-3.23-16.603 36.473-1.712 47.675 2.52c11.202 4.234 1.45.71 2.036 11.819s18.922 10.029 20.164.884-5.666-9.681 3.71-14.952c9.375-5.27 35.262-6.034 45.885-.94s-3.907 4.475-2.553 14.702 23.788 8.36 24.81-.483-7.915-6.38.734-11.1 36.856 9.047 47.6 4.047-2.253-2.727-.918-13.013 19.831-9.874 20.797-1.084c.967 8.789-5.67 7.958 3.238 12.967 8.908 5.008 32.85 7.132 44.043 2.855s.912-7.397 2.22-17.758c1.307-10.36 23.613-7.93 23.978.525s-13.188 10.717-3.502 16.053 37.756 1.863 48.987-2.186-3.97-3.043-2.599-13.212 23.186-7.343 23.853 1.231c.666 8.574-8.722 8.974-.251 13.322 8.47 4.349 35.522-10.799 46.726-6.574s2.354 4.216 3.29 15.097c.937 10.881 22.946 7.837 23.187-.591s-12.02-7.677-3.099-12.696c8.922-5.02 24.953 2.216 24.953 2.216" style="stroke-width:4;fill:none"/><path id="YDiv11" d="M0 785.71s10.141-7.111 21.332-2.83-.725 4.764.269 15.592c.993 10.828 23.042 6.359 23.832-2.29.79-8.648-6.199-9.168 2.987-14.36 9.186-5.191 34.617-2.238 45.401 2.727s.947 2.077 1.25 13.28c.302 11.203 22.405 6.678 22.885-1.813s-8.1-9.227.57-13.979 32.646-5.413 43.763-.916-1.19 4.624-.877 15.824c.313 11.201 26.63 8.118 27.033-.348s-8.715-9.986-.02-14.769 35.482 12.64 46.397 7.815-1.291-2.904-.758-14.035 21.4-11.762 21.764-3.307-6.487 10.668 2.79 15.902c9.276 5.234 34.45 3.866 44.625-1.432 10.176-5.297 1.032-.467 1.427-11.647.396-11.179 22.583-11.114 23.995-1.36 1.413 9.753-8.762 10.758-.095 15.504s32.46 1.862 43.685-2.235-1.327-.908-.354-11.757c.972-10.848 22.79-12.117 24.005-3.019s-6.606 13.243 2.01 17.91c8.614 4.667 35.72-14.434 45.982-9.161s.173 4.086.709 15.217 23.797 8.847 23.87.438c.075-8.41-9.443-8.76.186-14.09 9.63-5.33 34.323-2.643 45.437 1.858s-.426 3.355.946 13.521c1.372 10.165 23.596 7.95 23.627-.458s-8.554-9.833-.099-14.126 33.553-3.446 44.542 1.28c10.99 4.727-1.65 2.338-1.642 13.574s25.638 9.492 25.96 1.047c.323-8.444-10.395-13.124-1.274-18.282 9.122-5.157 37.692-3.478 48.794 1.05s-3.98 3.697-2.59 13.778c1.39 10.082 22.98 12.428 24.05 3.531s-6.545-11.094 2.072-15.764c8.61-4.67 21.51 2.13 21.51 2.13" style="stroke-width:4;fill:none"/><path id="YDiv12" d="M0 857.14s12.172-9.168 23.346-4.827c11.175 4.34-.656 3.637-.036 14.73s20.863 10.169 22.275.429-5.942-7.672 2.998-12.706c8.94-5.035 33.566 8.569 44.203 3.484s-2.029-1.462-1.427-12.564 22.995-10.794 24.18-1.745-6.656 12.636 2.32 17.698c8.974 5.062 33.035 4.532 43.927-.321s1.633-3.94 2.756-14.622 22.733-10.896 24.13-1.294-12.083 9.482-3.593 13.885 40.124 5.615 49.947.272c9.822-5.343-4.385-2.403-3.11-12.838s23.945-8.363 24.998.515-9.777 6.179-.922 11.14c8.855 4.96 37.653 5.218 48.55.37s-.888-3.775.506-13.835 19.244-7.479 20.602 1.948-10.284 7.56-.717 12.88c9.566 5.319 38.825-9.173 49.66-4.26 10.838 4.913-3.799 2.743-3.22 13.854.58 11.112 25.852 9.604 27.01.596 1.157-9.009-8.682-10.008.08-14.874s33.076 11.46 44.11 6.804-.765-4.745.648-14.62 23.35-9.354 24.551-.278c1.202 9.075-9.934 10.01-1.036 15.01s34.036.852 45.251-3.317 1.43-3.905 1.94-15.046 23.174-6.25 24.39 2.848c1.214 9.098-8.649 10.88-.23 14.994 8.42 4.115 33.344 4.688 43.387-.638s2.184-5.807 3.416-16.323 21.624-5.814 22.216 2.723-9.628 6.037-.733 11.034 38.117 7.382 48.682 2.25-4.002-3.146-3.527-14.3 25.96-9.972 27.142-.927-10.336 8.14-1.622 12.95c8.69 4.81 22.93-1.08 22.93-1.08" style="stroke-width:4;fill:none"/><path id="YDiv13" d="M0 928.57s10.117 6.787 21.344 2.702S24.507 927 24.823 915.8s19.414-7.593 20.077.98c.663 8.572-8.927 10.82.624 16.137s37.004 1.623 47.85-3.28c10.846-4.904-.686-3.961.436-14.642 1.123-10.682 23.013-8.563 23.85.117.835 8.68-7.723 11.841.995 16.654s31.556-10.898 42.704-6.481 2.154 5.657 3.393 16.16 21.63 9.924 22.973.545c1.343-9.38-10.387-10.108-1.816-14.697s38.074 10.652 48.66 5.534-2.313-7.236-1.195-17.922c1.12-10.687 20.678-8.703 22.003.624s-9.202 10.108-.274 15.133 39.008 5.767 49.988 1.026c10.98-4.74-1.48-4.47-.068-14.373s19.776-11.926 21.173-2.323-7.583 12.75 1.753 18.007 35.801 4.105 46.87-.492-.428-5.338.131-16.458c.56-11.12 20.105-9.252 20.653-.735s-6.973 9.825 2.756 15.164c9.73 5.34 33.671-11.709 43.761-6.392s-1.645 4.637-.38 15.092 23.296 8.418 24.474-.62c1.177-9.038-6.967-9.215 1.945-14.227 8.911-5.011 34.925-2.17 44.869 3.168s-2.202 1.068-.842 11.274 24.726 11.868 24.763 3.46c.038-8.407-8.239-14.496.17-18.467s34.795 14.425 44.77 9.09c9.973-5.334 1.85-6.178 3.142-16.573 1.293-10.395 19.712-6.852 20.88 2.17 1.166 9.022-5.684 9.187 2.74 13.333s33.457-12.206 44.673-8.046c11.217 4.159-1.95 6.433-1.69 17.645.26 11.21 25.928 9.01 26.112.59s-9.148-9.809.48-15.138 21.772 1.731 21.772 1.731" style="stroke-width:4;fill:none"/></g><path id="path4608" d="M0 18C0 9 9 0 18 0h664c9 0 18 9 18 18v964c0 9-9 18-18 18H18c-9 0-18-9-18-18V18" style="stroke-width:4;fill:none"/></g></g></g></g></svg>