<svg version="1.1" id="Layer_1" xmlns="http://www.w3.org/2000/svg" x="0" y="0" viewBox="0 0 32 32" style="enable-background:new 0 0 32 32" xml:space="preserve"><style>@media (prefers-color-scheme:light){path{fill:#000;color:#000}}@media (prefers-color-scheme:dark){path{fill:#fff;color:#fff}}</style><path id="puzzle_1_" d="M19 31.36c-1.279 0-2.32-1.072-2.32-2.391 0-.608.232-1.179.641-1.609H7a.36.36 0 0 1-.36-.36v-.256c0-.131.071-.252.186-.315.527-.291.854-.838.854-1.429 0-.904-.736-1.64-1.64-1.64S4.4 24.095 4.4 25c0 .57.295 1.092.789 1.395a.36.36 0 0 1 .172.307V27a.36.36 0 0 1-.36.36H1A.36.36 0 0 1 .64 27V5A.36.36 0 0 1 1 4.64h3.354A2.363 2.363 0 0 1 3.68 3C3.68 1.677 4.699.64 6 .64 7.323.64 8.4 1.699 8.4 3c0 .621-.249 1.207-.676 1.64h9.63A2.363 2.363 0 0 1 16.68 3c0-1.323 1.019-2.36 2.32-2.36 1.323 0 2.4 1.059 2.4 2.36 0 .621-.249 1.207-.677 1.64H27a.36.36 0 0 1 .36.36v5a.36.36 0 0 1-.36.36h-.24a.358.358 0 0 1-.315-.187c-.28-.509-.816-.813-1.435-.813-.91 0-1.649.736-1.649 1.64s.739 1.64 1.649 1.64c.543 0 1.082-.319 1.405-.832a.362.362 0 0 1 .305-.168H27a.36.36 0 0 1 .36.36v8.269a2.391 2.391 0 0 1 1.63-.629c1.307 0 2.37 1.059 2.37 2.36s-1.063 2.36-2.37 2.36a2.336 2.336 0 0 1-1.63-.696V27a.36.36 0 0 1-.36.36h-6.247c.409.43.647 1.003.647 1.609 0 1.297-1.099 2.391-2.4 2.391zm-4.64-4.72H18a.36.36 0 0 1 .36.36v.27a.36.36 0 0 1-.172.307 1.626 1.626 0 0 0-.788 1.393c0 .921.718 1.67 1.6 1.67.911 0 1.68-.765 1.68-1.67 0-.59-.326-1.135-.853-1.424a.36.36 0 0 1-.188-.315V27a.36.36 0 0 1 .36-.36h6.64V23a.36.36 0 0 1 .36-.36h.29a.36.36 0 0 1 .307.172c.313.511.848.828 1.394.828.91 0 1.649-.735 1.649-1.64s-.739-1.64-1.649-1.64c-.619 0-1.155.304-1.435.812a.36.36 0 0 1-.315.188H27a.36.36 0 0 1-.36-.36v-4.64H14.36v3.909a2.364 2.364 0 0 1 1.633-.629c1.305 0 2.368 1.059 2.368 2.36s-1.062 2.36-2.368 2.36c-.603 0-1.19-.256-1.633-.692v2.972zm-6.634 0h5.915V23a.36.36 0 0 1 .36-.36h.285a.36.36 0 0 1 .307.172c.314.511.851.828 1.401.828.908 0 1.647-.735 1.647-1.64s-.739-1.64-1.647-1.64c-.616 0-1.153.304-1.436.814a.36.36 0 0 1-.315.186H14a.36.36 0 0 1-.36-.36v-4.64H7a.36.36 0 0 1-.36-.36v-.256c0-.131.071-.252.186-.315.527-.291.854-.839.854-1.429 0-.904-.736-1.64-1.64-1.64S4.4 13.096 4.4 14c0 .57.295 1.092.789 1.394a.36.36 0 0 1 .172.307V16a.36.36 0 0 1-.36.36H1.36v10.28h2.989A2.33 2.33 0 0 1 3.68 25c0-1.302 1.059-2.36 2.36-2.36S8.4 23.699 8.4 25a2.353 2.353 0 0 1-.674 1.64zm6.634-11h12.28v-2.973c-.447.437-1.033.692-1.63.692-1.307 0-2.37-1.059-2.37-2.36s1.063-2.36 2.37-2.36a2.39 2.39 0 0 1 1.63.628V5.36H20a.36.36 0 0 1-.36-.36v-.26c0-.131.072-.252.188-.315A1.63 1.63 0 0 0 20.68 3c0-.889-.769-1.64-1.68-1.64-.897 0-1.6.721-1.6 1.64 0 .569.294 1.09.788 1.394a.358.358 0 0 1 .172.306V5a.36.36 0 0 1-.36.36h-3.64v3.909a2.392 2.392 0 0 1 1.63-.628c1.307 0 2.37 1.059 2.37 2.36s-1.063 2.36-2.37 2.36a2.333 2.333 0 0 1-1.63-.696v2.975zm-6.634 0h5.915V12a.36.36 0 0 1 .36-.36h.29c.125 0 .241.065.307.171.314.511.848.829 1.394.829.91 0 1.649-.736 1.649-1.64S16.9 9.36 15.99 9.36c-.619 0-1.155.304-1.434.813a.361.361 0 0 1-.316.187H14a.36.36 0 0 1-.36-.36V5.36H7A.36.36 0 0 1 6.64 5v-.26c0-.131.071-.252.187-.315.526-.289.853-.835.853-1.425 0-.889-.77-1.64-1.68-1.64-.897 0-1.6.721-1.6 1.64 0 .561.302 1.095.789 1.394a.36.36 0 0 1 .171.306V5a.36.36 0 0 1-.36.36H1.36v10.28h2.989A2.326 2.326 0 0 1 3.68 14c0-1.301 1.059-2.36 2.36-2.36S8.4 12.699 8.4 14a2.35 2.35 0 0 1-.674 1.64z"/><path id="_Transparent_Rectangle" style="fill:none" d="M0 0h32v32H0z"/></svg>